<svg xmlns="http://www.w3.org/2000/svg" viewBox="0 0 560 452" fill="none">
  <g transform="translate(0,452) scale(0.1,-0.1)" fill="#0B5FAE" stroke="none">
    <path d="M1485 4121 c-167 -42 -248 -105 -516 -402 -57 -63 -184 -202 -281 -308 -98 -106 -175 -197 -172 -202 3 -5 532 -9 1230 -9 673 0 1224 -3 1224 -6 0 -7 -24 -35 -234 -270 -93 -104 -198 -223 -235 -264 -98 -110 -345 -383 -505 -560 -147 -161 -402 -446 -546 -610 -45 -52 -115 -131 -155 -175 -39 -44 -114 -127 -166 -185 -51 -58 -96 -107 -99 -110 -9 -8 -280 -318 -388 -444 -56 -65 -102 -122 -102 -127 0 -5 200 -9 465 -9 437 0 469 1 521 20 79 27 119 61 299 258 88 96 207 225 265 286 58 61 157 168 220 236 63 69 147 158 185 200 39 41 94 102 124 135 30 33 102 112 161 175 59 63 124 135 146 160 21 25 42 47 45 50 3 3 54 59 114 125 60 66 127 140 150 165 47 50 229 249 375 410 52 58 122 134 155 170 33 36 101 110 150 165 102 114 215 237 325 355 8 9 35 39 60 66 44 49 90 98 426 463 203 221 225 247 217 255 -3 3 -767 6 -1697 5 -1575 0 -1696 -2 -1761 -18z"/>
    <path d="M2889 1406 c-78 -21 -130 -60 -244 -182 -60 -66 -144 -155 -186 -199 -42 -44 -163 -174 -269 -290 -106 -115 -209 -227 -228 -247 -20 -21 -33 -40 -30 -43 3 -4 481 -6 1062 -6 759 0 1068 4 1099 12 115 31 208 99 350 258 67 75 185 207 262 292 279 310 356 399 350 409 -10 16 -2107 12 -2166 -4z"/>
  </g>
</svg>
